<?xml version="1.0" encoding="UTF-8"?>
<svg id="Calque_2" data-name="Calque 2" xmlns="http://www.w3.org/2000/svg" xmlns:xlink="http://www.w3.org/1999/xlink" viewBox="0 0 717.82 687.91">
  <defs>
    <style>
      .cls-1 {
        fill: #fff;
      }

      .cls-2 {
        fill: url(#Dégradé_sans_nom_82);
      }

      .cls-3 {
        fill: #f1861f;
      }

      .cls-4 {
        fill: url(#Dégradé_sans_nom_82-8);
      }

      .cls-5 {
        fill: url(#Dégradé_sans_nom_82-4);
      }

      .cls-6 {
        fill: url(#Dégradé_sans_nom_82-7);
      }

      .cls-7 {
        fill: url(#Dégradé_sans_nom_82-5);
      }

      .cls-8 {
        fill: url(#Dégradé_sans_nom_82-6);
      }

      .cls-9 {
        fill: url(#Dégradé_sans_nom_82-2);
      }

      .cls-10 {
        fill: url(#Dégradé_sans_nom_82-3);
      }
    </style>
    <linearGradient id="Dégradé_sans_nom_82" data-name="Dégradé sans nom 82" x1="361.53" y1="484.16" x2="518.03" y2="484.16" gradientUnits="userSpaceOnUse">
      <stop offset="0" stop-color="#284596"/>
      <stop offset="1" stop-color="#0070ba"/>
    </linearGradient>
    <linearGradient id="Dégradé_sans_nom_82-2" data-name="Dégradé sans nom 82" x1="105.81" y1="242.14" x2="263.35" y2="242.14" xlink:href="#Dégradé_sans_nom_82"/>
    <linearGradient id="Dégradé_sans_nom_82-3" data-name="Dégradé sans nom 82" x1="545.08" y1="484.16" x2="717.82" y2="484.16" xlink:href="#Dégradé_sans_nom_82"/>
    <linearGradient id="Dégradé_sans_nom_82-4" data-name="Dégradé sans nom 82" x1="106.55" y1="484.64" x2="253" y2="484.64" xlink:href="#Dégradé_sans_nom_82"/>
    <linearGradient id="Dégradé_sans_nom_82-5" data-name="Dégradé sans nom 82" x1="489.54" y1="241.14" x2="691.82" y2="241.14" xlink:href="#Dégradé_sans_nom_82"/>
    <linearGradient id="Dégradé_sans_nom_82-6" data-name="Dégradé sans nom 82" x1="281.82" y1="484.64" x2="322.82" y2="484.64" xlink:href="#Dégradé_sans_nom_82"/>
    <linearGradient id="Dégradé_sans_nom_82-7" data-name="Dégradé sans nom 82" x1="159.17" y1="633.62" x2="610.04" y2="633.62" xlink:href="#Dégradé_sans_nom_82"/>
    <linearGradient id="Dégradé_sans_nom_82-8" data-name="Dégradé sans nom 82" x1="0" y1="451.64" x2="106.55" y2="451.64" xlink:href="#Dégradé_sans_nom_82"/>
  </defs>
  <g id="Calque_1-2" data-name="Calque 1">
    <g>
      <path class="cls-3" d="M486.66,11.74C353.65-22.35,220.58,19.19,127.55,118.4c-2.87,3.06-5.29,6.05-9.77,12.21-.64.87-12.46,17.65-11.97,18.42.65,1.02,17.53-13,19.75-14.78.04-.03,13.23-9.94,13.27-9.97C218.97,63.69,306.58,30.1,407.18,39.99c32.28,3.17,63.88,11.52,93.8,23.66l15.05-42.23c-.21-1.9-25.68-8.73-29.38-9.68Z"/>
      <circle class="cls-3" cx="587.99" cy="65.62" r="42.94"/>
    </g>
    <g>
      <g>
        <polygon class="cls-2" points="481.03 511.66 399.53 386.66 361.53 386.66 361.67 581.66 399.03 581.66 399.03 453.66 480.03 581.66 518.03 581.66 517.95 386.66 481.03 386.66 481.03 511.66"/>
        <path class="cls-9" d="M205.81,307.64c-22.05,11.28-56.98,3.34-61.03-24.5l-38.98,6c4.18,53.52,60.19,71.36,106.22,58.72,37.04-10.17,59.55-43.6,48.5-81.93-11.19-38.82-54.08-39.65-85.23-51.77-8.86-3.45-18.42-7.08-20.24-17.75-5.13-30.06,42.95-32.36,57.17-13.18,3.04,4.1,4.49,7.49,6.23,11.79l40.33-5.9c-4.08-52.49-67.75-66.59-109.5-50-47.51,18.88-54.91,86.31-6.15,109.19,17.01,7.98,62.5,15.05,72.12,27.88,8.3,11.08,1.92,25.63-9.45,31.44Z"/>
        <path class="cls-10" d="M642.82,478.43v32.77l35-.06c.88,32.89-31.66,44.38-58.99,33.49-44.78-17.86-42.16-119.82,14.44-124.52,23.83-1.98,38.44,8.04,44.66,30.92l38.88-3.88c-7.69-75.32-110.34-84.12-151.42-29.92-27.68,36.52-27.26,103.06,2.45,138.39,42.75,50.83,141.58,36.6,148.95-35.99l1.03-41.18-75.01-.02Z"/>
        <path class="cls-5" d="M208.77,512.86c56.79-16.36,60.23-103.6,2.56-122-2.92-.93-12.88-3.72-15.28-3.72h-89.48l-.02,195h42v-65c19.54-.47,41.33,1.16,60.22-4.28ZM149,422.14h30.05c3.78,0,12.62,2.07,16.18,3.82,25.49,12.58,13.51,55.18-12.18,55.18h-34.08l.03-59Z"/>
        <polygon class="cls-7" points="569.82 346.14 614.82 346.14 614.82 272.64 691.82 136.14 642.82 136.14 592.83 230.14 542.82 136.14 489.54 136.14 569.82 272.4 569.82 346.14"/>
        <rect class="cls-8" x="281.82" y="387.14" width="41" height="195"/>
        <polygon class="cls-6" points="264.9 664.06 159.17 579.34 159.17 608.37 257.75 687.91 610.04 623.59 610.04 601.08 610.03 601.05 264.9 664.06"/>
        <polygon class="cls-4" points="21.12 389.7 106.55 372.19 106.55 350.63 0 372.48 .01 372.53 0 372.53 0 477.29 0 477.29 95.01 552.65 95.01 525.69 31.54 475.35 95.01 462.34 95.01 447.79 21.12 462.94 21.12 389.7"/>
      </g>
      <g>
        <polygon class="cls-1" points="481.03 511.66 399.53 386.66 361.53 386.66 361.67 581.66 399.03 581.66 399.03 453.66 480.03 581.66 518.03 581.66 517.95 386.66 481.03 386.66 481.03 511.66"/>
        <path class="cls-1" d="M205.81,307.64c-22.05,11.28-56.98,3.34-61.03-24.5l-38.98,6c4.18,53.52,60.19,71.36,106.22,58.72,37.04-10.17,59.55-43.6,48.5-81.93-11.19-38.82-54.08-39.65-85.23-51.77-8.86-3.45-18.42-7.08-20.24-17.75-5.13-30.06,42.95-32.36,57.17-13.18,3.04,4.1,4.49,7.49,6.23,11.79l40.33-5.9c-4.08-52.49-67.75-66.59-109.5-50-47.51,18.88-54.91,86.31-6.15,109.19,17.01,7.98,62.5,15.05,72.12,27.88,8.3,11.08,1.92,25.63-9.45,31.44Z"/>
        <path class="cls-1" d="M642.82,478.43v32.77l35-.06c.88,32.89-31.66,44.38-58.99,33.49-44.78-17.86-42.16-119.82,14.44-124.52,23.83-1.98,38.44,8.04,44.66,30.92l38.88-3.88c-7.69-75.32-110.34-84.12-151.42-29.92-27.68,36.52-27.26,103.06,2.45,138.39,42.75,50.83,141.58,36.6,148.95-35.99l1.03-41.18-75.01-.02Z"/>
        <path class="cls-1" d="M208.77,512.86c56.79-16.36,60.23-103.6,2.56-122-2.92-.93-12.88-3.72-15.28-3.72h-89.48l-.02,195h42v-65c19.54-.47,41.33,1.16,60.22-4.28ZM149,422.14h30.05c3.78,0,12.62,2.07,16.18,3.82,25.49,12.58,13.51,55.18-12.18,55.18h-34.08l.03-59Z"/>
        <polygon class="cls-1" points="569.82 346.14 614.82 346.14 614.82 272.64 691.82 136.14 642.82 136.14 592.83 230.14 542.82 136.14 489.54 136.14 569.82 272.4 569.82 346.14"/>
        <rect class="cls-1" x="281.82" y="387.14" width="41" height="195"/>
        <path class="cls-1" d="M440.79,336.49l23.03,23.03,23.86-23.86-22.48-22.48c30.33-32.28,32.72-88.53,12.78-126.71-19.95-38.21-58.76-56.8-101.37-53.03-73.45,6.5-108.01,85.15-84.82,150.22,21.51,60.34,93.48,83.37,148.99,52.83ZM387.84,172.96c52.38.1,67.88,71.23,47.08,109.94l-27.64-27.64-23.86,23.86,25.28,25.28-.89.72c-11.05,5.37-22.02,6.43-34,3.52-63.9-15.5-60.01-135.83,14.03-135.68Z"/>
        <polygon class="cls-1" points="264.9 664.06 159.17 579.34 159.17 608.37 257.75 687.91 610.04 623.59 610.04 601.08 610.03 601.05 264.9 664.06"/>
        <polygon class="cls-1" points="21.12 389.7 106.55 372.19 106.55 350.63 0 372.48 .01 372.53 0 372.53 0 477.29 0 477.29 95.01 552.65 95.01 525.69 31.54 475.35 95.01 462.34 95.01 447.79 21.12 462.94 21.12 389.7"/>
      </g>
    </g>
  </g>
</svg>